<svg xmlns="http://www.w3.org/2000/svg" xmlns:xlink="http://www.w3.org/1999/xlink" width="305" zoomAndPan="magnify" viewBox="0 0 228.75 228.749994" height="305" preserveAspectRatio="xMidYMid meet" version="1.0"><defs><clipPath id="235b1f8888"><path d="M 16.75 107 L 211.75 107 L 211.75 200 L 16.75 200 Z M 16.75 107 " clip-rule="nonzero"/></clipPath></defs><path fill="#f4f6ff" d="M 76.246094 35.457031 C 75.285156 40.277344 75.925781 45.675781 75.925781 50.625 C 75.988281 55.832031 76.183594 60.910156 76.628906 66.050781 C 77.078125 71 85.472656 71.707031 86.5 66.757812 C 87.71875 61.167969 88.292969 55.960938 88.164062 50.304688 C 87.972656 44.777344 87.78125 38.796875 85.667969 33.65625 C 84.832031 31.664062 82.269531 30.570312 80.285156 30.957031 C 77.976562 31.40625 76.695312 33.269531 76.246094 35.457031 Z M 76.246094 35.457031 " fill-opacity="1" fill-rule="nonzero"/><path fill="#f4f6ff" d="M 145.910156 33.785156 C 143.984375 37.640625 144.753906 43.363281 144.945312 47.605469 C 145.140625 52.554688 145.714844 57.117188 146.996094 61.875 C 148.726562 68.367188 156.929688 67.402344 158.214844 61.230469 C 159.300781 56.089844 159.367188 51.394531 158.789062 46.191406 C 158.277344 41.496094 157.828125 35.90625 154.816406 32.046875 C 152.125 28.640625 147.511719 30.507812 145.910156 33.785156 Z M 145.910156 33.785156 " fill-opacity="1" fill-rule="nonzero"/><g clip-path="url(#235b1f8888)"><path fill="#f4f6ff" d="M 22.21875 198.015625 C 26.640625 191.714844 29.398438 184.195312 33.5625 177.636719 C 37.730469 171.015625 42.40625 164.589844 47.535156 158.675781 C 57.402344 147.363281 69.386719 137.65625 82.589844 130.585938 C 98.097656 122.292969 115.53125 117.34375 133.15625 120.109375 C 148.601562 122.550781 163.082031 130.84375 173.914062 142.027344 C 180.386719 148.710938 185.707031 156.296875 190 164.589844 C 194.359375 173.074219 197.371094 182.007812 200.960938 190.816406 C 203.394531 196.792969 211.726562 193.0625 211.085938 187.34375 C 209.164062 169.28125 199.164062 151.347656 187.371094 137.914062 C 175.582031 124.414062 159.6875 113.9375 142.253906 109.632812 C 105.980469 100.632812 68.042969 119.59375 43.816406 146.140625 C 37.28125 153.277344 31.382812 160.925781 26.835938 169.472656 C 22.476562 177.507812 17.351562 186.894531 16.902344 196.148438 C 16.773438 199.042969 20.554688 200.390625 22.21875 198.015625 Z M 22.21875 198.015625 " fill-opacity="1" fill-rule="nonzero"/></g></svg>