<svg xmlns="http://www.w3.org/2000/svg" xmlns:xlink="http://www.w3.org/1999/xlink" width="305" zoomAndPan="magnify" viewBox="0 0 228.75 228.749994" height="305" preserveAspectRatio="xMidYMid meet" version="1.0"><defs><clipPath id="b6e515ab05"><path d="M 88 78 L 159.800781 78 L 159.800781 178.035156 L 88 178.035156 Z M 88 78 " clip-rule="nonzero"/></clipPath><clipPath id="0bcad22b73"><path d="M 69.050781 126 L 111 126 L 111 178.035156 L 69.050781 178.035156 Z M 69.050781 126 " clip-rule="nonzero"/></clipPath></defs><path fill="#ffffff" d="M 146.746094 62.304688 C 146.746094 63.039062 146.671875 63.769531 146.527344 64.492188 C 146.386719 65.214844 146.171875 65.914062 145.890625 66.597656 C 145.605469 67.277344 145.261719 67.921875 144.851562 68.535156 C 144.441406 69.148438 143.972656 69.714844 143.453125 70.234375 C 142.929688 70.753906 142.363281 71.21875 141.75 71.628906 C 141.132812 72.039062 140.488281 72.382812 139.804688 72.664062 C 139.121094 72.949219 138.417969 73.160156 137.695312 73.304688 C 136.972656 73.449219 136.238281 73.519531 135.5 73.519531 C 134.761719 73.519531 134.03125 73.449219 133.308594 73.304688 C 132.585938 73.160156 131.882812 72.949219 131.199219 72.664062 C 130.515625 72.382812 129.867188 72.039062 129.253906 71.628906 C 128.640625 71.21875 128.074219 70.753906 127.550781 70.234375 C 127.03125 69.714844 126.5625 69.148438 126.152344 68.535156 C 125.742188 67.921875 125.398438 67.277344 125.113281 66.597656 C 124.832031 65.914062 124.617188 65.214844 124.472656 64.492188 C 124.332031 63.769531 124.257812 63.039062 124.257812 62.304688 C 124.257812 61.566406 124.332031 60.839844 124.472656 60.117188 C 124.617188 59.394531 124.832031 58.691406 125.113281 58.011719 C 125.398438 57.332031 125.742188 56.6875 126.152344 56.074219 C 126.5625 55.460938 127.03125 54.894531 127.550781 54.375 C 128.074219 53.855469 128.640625 53.390625 129.253906 52.980469 C 129.867188 52.570312 130.515625 52.226562 131.199219 51.941406 C 131.882812 51.660156 132.585938 51.449219 133.308594 51.304688 C 134.03125 51.160156 134.761719 51.089844 135.5 51.089844 C 136.238281 51.089844 136.972656 51.160156 137.695312 51.304688 C 138.417969 51.449219 139.121094 51.660156 139.804688 51.941406 C 140.488281 52.226562 141.132812 52.570312 141.75 52.980469 C 142.363281 53.390625 142.929688 53.855469 143.453125 54.375 C 143.972656 54.894531 144.441406 55.460938 144.851562 56.074219 C 145.261719 56.6875 145.605469 57.332031 145.890625 58.011719 C 146.171875 58.691406 146.386719 59.394531 146.527344 60.117188 C 146.671875 60.839844 146.746094 61.566406 146.746094 62.304688 Z M 146.746094 62.304688 " fill-opacity="1" fill-rule="nonzero"/><g clip-path="url(#b6e515ab05)"><path fill="#ffffff" d="M 123.105469 78.503906 C 122.433594 78.511719 121.78125 78.816406 121.339844 79.394531 L 109.617188 94.9375 L 90.503906 94.9375 C 89.261719 94.9375 88.261719 95.933594 88.261719 97.175781 L 88.261719 101.132812 C 88.261719 102.375 89.261719 103.371094 90.503906 103.371094 L 112.429688 103.371094 C 113.117188 103.371094 113.714844 103.050781 114.128906 102.566406 C 114.421875 102.417969 114.699219 102.21875 114.914062 101.9375 L 122.015625 92.527344 L 122.015625 172.453125 C 122.015625 175.570312 124.539062 178.0625 127.660156 178.0625 L 128.011719 178.0625 C 131.132812 178.0625 133.65625 175.570312 133.65625 172.453125 L 133.65625 124.742188 L 137.382812 124.742188 L 137.382812 172.453125 C 137.382812 175.570312 139.882812 178.0625 143.003906 178.0625 L 143.351562 178.0625 C 146.472656 178.0625 148.996094 175.570312 148.996094 172.453125 L 148.996094 117.632812 C 148.996094 117.441406 148.992188 117.257812 148.976562 117.070312 L 148.976562 92.417969 L 151.351562 92.417969 L 151.351562 123.003906 C 151.351562 125.175781 153.234375 126.917969 155.578125 126.917969 C 157.917969 126.917969 159.804688 125.175781 159.804688 123.003906 L 159.804688 84.617188 L 159.785156 84.617188 C 159.785156 84.558594 159.804688 84.5 159.804688 84.441406 C 159.804688 81.160156 157.125 78.507812 153.835938 78.507812 L 123.109375 78.507812 Z M 123.105469 78.503906 " fill-opacity="1" fill-rule="nonzero"/></g><path fill="#ffffff" d="M 85.558594 133.214844 L 93.667969 134.5625 L 92.316406 142.652344 L 84.207031 141.304688 Z M 85.558594 133.214844 " fill-opacity="1" fill-rule="nonzero"/><path fill="#ffffff" d="M 86.128906 123.34375 L 93.375 119.472656 L 97.253906 126.699219 L 90.007812 130.570312 Z M 86.128906 123.34375 " fill-opacity="1" fill-rule="nonzero"/><path fill="#ffffff" d="M 83.527344 108.621094 L 90.945312 112.160156 L 87.398438 119.554688 L 79.984375 116.015625 Z M 83.527344 108.621094 " fill-opacity="1" fill-rule="nonzero"/><g clip-path="url(#0bcad22b73)"><path fill="#ffffff" d="M 76.753906 126.542969 L 69.0625 126.628906 L 76.144531 178.058594 L 103.273438 178.058594 L 110.355469 126.628906 L 102.664062 126.542969 L 96.671875 170.105469 L 82.746094 170.105469 Z M 76.753906 126.542969 " fill-opacity="1" fill-rule="nonzero"/></g></svg>