<svg xmlns="http://www.w3.org/2000/svg" xmlns:xlink="http://www.w3.org/1999/xlink" width="305" zoomAndPan="magnify" viewBox="0 0 228.75 228.749994" height="305" preserveAspectRatio="xMidYMid meet" version="1.0"><defs><clipPath id="5a9fada570"><path d="M 102.167969 114.375 L 126.917969 114.375 L 126.917969 118.125 L 102.167969 118.125 Z M 102.167969 114.375 " clip-rule="nonzero"/></clipPath></defs><g clip-path="url(#5a9fada570)"><path fill="#f26722" d="M 124.597656 113.925781 L 116.863281 113.925781 L 116.863281 106.191406 C 116.863281 104.910156 115.828125 103.871094 114.542969 103.871094 C 113.261719 103.871094 112.222656 104.910156 112.222656 106.191406 L 112.222656 113.925781 L 104.488281 113.925781 C 103.207031 113.925781 102.167969 114.964844 102.167969 116.246094 C 102.167969 117.53125 103.207031 118.566406 104.488281 118.566406 L 112.222656 118.566406 L 112.222656 126.300781 C 112.222656 127.585938 113.261719 128.621094 114.542969 128.621094 C 115.828125 128.621094 116.863281 127.585938 116.863281 126.300781 L 116.863281 118.566406 L 124.597656 118.566406 C 125.882812 118.566406 126.917969 117.53125 126.917969 116.246094 C 126.917969 114.964844 125.882812 113.925781 124.597656 113.925781 Z M 124.597656 113.925781 " fill-opacity="1" fill-rule="nonzero"/></g></svg>