<svg xmlns="http://www.w3.org/2000/svg" xmlns:xlink="http://www.w3.org/1999/xlink" width="305" zoomAndPan="magnify" viewBox="0 0 228.75 228.749994" height="305" preserveAspectRatio="xMidYMid meet" version="1.0"><defs><clipPath id="4cae1771da"><path d="M 102.167969 102.167969 L 126.917969 102.167969 L 126.917969 126.917969 L 102.167969 126.917969 Z M 102.167969 102.167969 " clip-rule="nonzero"/></clipPath></defs><g clip-path="url(#4cae1771da)"><path fill="#f26722" d="M 124.597656 112.222656 L 116.863281 112.222656 L 116.863281 104.488281 C 116.863281 103.207031 115.828125 102.167969 114.542969 102.167969 C 113.261719 102.167969 112.222656 103.207031 112.222656 104.488281 L 112.222656 112.222656 L 104.488281 112.222656 C 103.207031 112.222656 102.167969 113.261719 102.167969 114.542969 C 102.167969 115.828125 103.207031 116.863281 104.488281 116.863281 L 112.222656 116.863281 L 112.222656 124.597656 C 112.222656 125.882812 113.261719 126.917969 114.542969 126.917969 C 115.828125 126.917969 116.863281 125.882812 116.863281 124.597656 L 116.863281 116.863281 L 124.597656 116.863281 C 125.882812 116.863281 126.917969 115.828125 126.917969 114.542969 C 126.917969 113.261719 125.882812 112.222656 124.597656 112.222656 Z M 124.597656 112.222656 " fill-opacity="1" fill-rule="nonzero"/></g></svg>