<svg xmlns="http://www.w3.org/2000/svg" xmlns:xlink="http://www.w3.org/1999/xlink" width="305" zoomAndPan="magnify" viewBox="0 0 228.75 228.749994" height="305" preserveAspectRatio="xMidYMid meet" version="1.0"><defs><clipPath id="df2bc80649"><path d="M 100.230469 87.335938 L 128.730469 87.335938 L 128.730469 141 L 100.230469 141 Z M 100.230469 87.335938 " clip-rule="nonzero"/></clipPath></defs><g clip-path="url(#df2bc80649)"><path fill="#ffffff" d="M 128.039062 88.140625 C 127.695312 87.792969 127.246094 87.617188 126.796875 87.617188 C 126.347656 87.617188 125.894531 87.792969 125.550781 88.140625 L 100.921875 112.992188 C 100.234375 113.6875 100.234375 114.808594 100.921875 115.503906 L 125.550781 140.359375 C 126.238281 141.050781 127.351562 141.050781 128.039062 140.359375 C 128.726562 139.664062 128.726562 138.542969 128.039062 137.847656 L 104.652344 114.25 L 128.039062 90.648438 C 128.726562 89.957031 128.726562 88.832031 128.039062 88.140625 Z M 128.039062 88.140625 " fill-opacity="1" fill-rule="nonzero"/></g></svg>