<svg xmlns="http://www.w3.org/2000/svg" xmlns:xlink="http://www.w3.org/1999/xlink" width="305" zoomAndPan="magnify" viewBox="0 0 228.75 228.749994" height="305" preserveAspectRatio="xMidYMid meet" version="1.0"><defs><clipPath id="d2f57bf637"><path d="M 94.75 78 L 133.75 78 L 133.75 151 L 94.75 151 Z M 94.75 78 " clip-rule="nonzero"/></clipPath></defs><g clip-path="url(#d2f57bf637)"><path fill="#ffffff" d="M 95.695312 149.949219 C 96.164062 150.421875 96.78125 150.65625 97.398438 150.65625 C 98.011719 150.65625 98.628906 150.421875 99.097656 149.949219 L 132.800781 116.113281 C 133.742188 115.167969 133.742188 113.640625 132.800781 112.695312 L 99.097656 78.859375 C 98.160156 77.917969 96.636719 77.917969 95.695312 78.859375 C 94.753906 79.804688 94.753906 81.332031 95.695312 82.277344 L 127.695312 114.40625 L 95.695312 146.53125 C 94.753906 147.476562 94.753906 149.003906 95.695312 149.949219 Z M 95.695312 149.949219 " fill-opacity="1" fill-rule="nonzero"/></g></svg>